<?xml version="1.0" standalone="no"?>
<!DOCTYPE svg PUBLIC "-//W3C//DTD SVG 20010904//EN"
 "http://www.w3.org/TR/2001/REC-SVG-20010904/DTD/svg10.dtd">
<svg version="1.0" xmlns="http://www.w3.org/2000/svg"
 width="512.000000pt" height="589.000000pt" viewBox="0 0 512.000000 589.000000"
 preserveAspectRatio="xMidYMid meet">

<g transform="translate(0.000000,589.000000) scale(0.100000,-0.100000)"
fill="#000000" stroke="none">
<path d="M2367 5875 c-592 -97 -1027 -607 -1027 -1206 0 -392 182 -755 495
-985 608 -448 1472 -243 1811 429 100 198 139 378 131 602 -22 568 -414 1030
-977 1151 -104 22 -323 27 -433 9z m418 -479 c206 -70 357 -201 450 -391 59
-120 78 -204 78 -340 0 -290 -155 -543 -413 -675 -93 -47 -159 -67 -264 -80
-360 -44 -715 196 -818 555 -27 96 -32 285 -9 375 74 290 298 510 586 574 110
25 288 16 390 -18z"/>
<path d="M1140 3053 c-276 -29 -559 -165 -762 -365 -171 -169 -291 -390 -355
-653 -15 -62 -17 -166 -20 -955 -4 -802 -2 -889 13 -928 23 -61 60 -101 119
-128 l50 -24 2375 0 2375 0 50 24 c60 28 87 56 114 116 20 44 21 61 21 884 0
924 -2 957 -62 1146 -38 120 -115 270 -188 370 -185 249 -437 413 -760 493
-84 21 -95 21 -1510 23 -784 0 -1441 -1 -1460 -3z m2920 -481 c41 -13 116 -44
165 -70 73 -38 109 -65 190 -147 82 -81 109 -117 147 -190 26 -49 57 -124 70
-165 22 -75 22 -77 26 -808 l3 -732 -305 0 -305 0 -3 483 c-3 472 -3 483 -25
522 -54 101 -164 146 -277 113 -54 -16 -128 -90 -144 -144 -9 -30 -12 -169
-12 -508 l0 -466 -1030 0 -1030 0 0 468 c0 533 -1 541 -71 611 -94 94 -250 89
-334 -11 -56 -66 -55 -58 -55 -583 l0 -485 -305 0 -306 0 3 732 c4 727 4 734
26 806 96 314 352 540 672 595 14 3 655 4 1425 3 l1400 -1 75 -23z"/>
</g>
</svg>
